# xmcd
#
# Track frame offsets:
#	150
#	11168
#	19912
#	30464
#	41368
#	55641
#	68326
#	82490
#	97471
#	110635
#	122039
#	135129
#	147484
#	157220
#	170391
#	182262
#	214304
#	230958
#	246916
#	267188
#
# Disc length: 3752 seconds
#
# Revision: 0
# Processed by: cddbd v1.5.2PL0 Copyright (c) Steve Scherf et al.
# Submitted via: EasyCDDAExtractor 11.0.2.1
#
DISCID=210ea614
DTITLE=Henri Salvator - 20 grand succès
DYEAR=2008
DGENRE=Chanson
TTITLE0=Le Loup la biche et le chevalier
TTITLE1=Maladie d'amour
TTITLE2=Adieu foulards,Adieu madras
TTITLE3=Clopin-clopant
TTITLE4=Si Jolie
TTITLE5=Le Schaphandrier
TTITLE6=SaintGermain des Près
TTITLE7=Parce que ça me donne du courage
TTITLE8=Va te fairecuire un oeuf,man 
TTITLE9=Rock-Hoquet
TTITLE10=Qu'ech que ch'est qu'chat
TTITLE11=Rock and Roll-mops
TTITLE12=Si j'avait du culot
TTITLE13=as tu vus Adèle
TTITLE14=Dis moi que tu m'aimes, rock
TTITLE15=Salvador plays the blues
TTITLE16=Stompin'at the Savoy
TTITLE17=Wath is this thing called love
TTITLE18=Speak low
TTITLE19=Henri Salvador s'amuse
EXTD=
EXTT0=
EXTT1=
EXTT2=
EXTT3=
EXTT4=
EXTT5=
EXTT6=
EXTT7=
EXTT8=
EXTT9=
EXTT10=
EXTT11=
EXTT12=
EXTT13=
EXTT14=
EXTT15=
EXTT16=
EXTT17=
EXTT18=
EXTT19=
PLAYORDER=
